# xmcd CD database file
#
# Track frame offsets:
#	150
#	15110
#	37832
#	62980
#	79576
#	103740
#	119355
#	133400
#	148994
#	162680
#	179477
#	189088
#	206524
#	221719
#	247713
#	261069
#	280154
#	292079
#	305819
#	320297
#
# Disc length: 4556 seconds
#
# Revision: 0
# Processed by: cddbd v1.5.2PL0 Copyright (c) Steve Scherf et al.
# Submitted via: Feurio! 1.68 - http://www.feurio.com
#
DISCID=2d11ca14
DTITLE=Various Artist - Jack's Non Stop Steppers Mix Vol. 5
DYEAR=1900
DGENRE=R&B
TTITLE0=Guess Who - Urgency
TTITLE1=Gothan Project - Chunga's Revenge (The Violin Song
TTITLE2=Yam Who - Star Of The Story
TTITLE3=Julie Dexter - Choices
TTITLE4=Promise - Payback
TTITLE5=KEM - Find Your Way (Back IN My Life)
TTITLE6=Anthony Hamilton - Clearly
TTITLE7=Lina - I Am(
TTITLE8=Paul Hardcastle - What Is Love
TTITLE9=Steve Butler w/Ron Hayes - Change
TTITLE10=Shapro - You Don't Want Me Back
TTITLE11=Keezokane - Funk JB's Remix
TTITLE12=Avila Brothers - Let It Go
TTITLE13=DJ Calvin - Audobon
TTITLE14=Shapro - Hit it
TTITLE15=Positive Flow - City Streets
TTITLE16=Ashanti - Only You
TTITLE17=Vivian Green - Wish We Could Go Back
TTITLE18=Steve Butler w/Ron Hayes - Windy City
TTITLE19=Marvin Jr. - Step The Night Away
EXTD=
EXTT0=
EXTT1=
EXTT2=
EXTT3=
EXTT4=
EXTT5=
EXTT6=
EXTT7=
EXTT8=
EXTT9=
EXTT10=
EXTT11=
EXTT12=
EXTT13=
EXTT14=
EXTT15=
EXTT16=
EXTT17=
EXTT18=
EXTT19=
PLAYORDER=
